<svg xmlns="http://www.w3.org/2000/svg" version="1.1" xmlns:xlink="http://www.w3.org/1999/xlink" xmlns:svgjs="http://svgjs.dev/svgjs" width="1000" height="623" viewBox="0 0 1000 623"><g transform="matrix(1,0,0,1,-0.6060606060606233,0.2522267206477409)"><svg viewBox="0 0 396 247" data-background-color="#ffffff" preserveAspectRatio="xMidYMid meet" height="623" width="1000" xmlns="http://www.w3.org/2000/svg" xmlns:xlink="http://www.w3.org/1999/xlink"><g id="tight-bounds" transform="matrix(1,0,0,1,0.2400000000000091,-0.09999999999999432)"><svg viewBox="0 0 395.52 247.2" height="247.2" width="395.52"><g><svg></svg></g><g><svg viewBox="0 0 395.52 247.2" height="247.2" width="395.52"><g transform="matrix(1,0,0,1,75.54432,63.97149318435755)"><svg viewBox="0 0 244.43135999999998 119.25701363128489" height="119.25701363128489" width="244.43135999999998"><g><svg viewBox="0 0 244.43135999999998 119.25701363128489" height="119.25701363128489" width="244.43135999999998"><g><svg viewBox="0 0 244.43136 119.2570136312849" height="119.25701363128489" width="244.43135999999998"><g><svg viewBox="0 0 244.43136 119.2570136312849" height="119.2570136312849" width="244.43136"><g id="textblocktransform"><svg viewBox="0 0 244.43136 119.2570136312849" height="119.2570136312849" width="244.43136" id="textblock"><g><svg viewBox="0 0 244.43136 119.2570136312849" height="119.2570136312849" width="244.43136"><g transform="matrix(1,0,0,1,0,0)"><svg width="244.43136" viewBox="3.9000000953674316 -25.5 53.69999694824219 26.200000762939453" height="119.2570136312849" data-palette-color="#f86c6c"><path d="M10.2-12.9L10.2 0 3.9 0 3.9-24.8 10.2-24.8 10.2-21.1 11.1-21.1Q11.95-23.2 13.85-24.35 15.75-25.5 18.3-25.5L18.3-25.5Q20.1-25.5 21.68-24.93 23.25-24.35 24.45-23.15 25.65-21.95 26.33-20.1 27-18.25 27-15.7L27-15.7 27 0 20.7 0 20.7-14.1Q20.7-16.75 19.43-18.28 18.15-19.8 15.75-19.8L15.75-19.8Q12.95-19.8 11.58-17.93 10.2-16.05 10.2-12.9L10.2-12.9ZM51.3-11.8L51.3-24.8 57.6-24.8 57.6 0 51.3 0 51.3-3.6 50.4-3.6Q48.75 0.7 43.3 0.7L43.3 0.7Q41.45 0.7 39.85 0.1 38.25-0.5 37.05-1.75 35.85-3 35.17-4.88 34.5-6.75 34.5-9.3L34.5-9.3 34.5-24.8 40.8-24.8 40.8-10.6Q40.8-7.95 42.05-6.48 43.3-5 45.8-5L45.8-5Q48.65-5 49.97-6.83 51.3-8.65 51.3-11.8L51.3-11.8Z" opacity="1" transform="matrix(1,0,0,1,0,0)" fill="#f86c6c" class="undefined-text-0" data-fill-palette-color="primary" id="text-0"></path></svg></g></svg></g></svg></g></svg></g></svg></g></svg></g></svg></g><path d="M238.73 57.971L238.73 9.937 11.403 9.937 11.403 237.263 238.73 237.263 238.73 189.229 227.975 189.229 227.975 226.509 22.158 226.509 22.158 20.691 227.975 20.691 227.975 57.971Z" fill="#f86c6c" stroke="transparent" data-fill-palette-color="primary"></path></svg></g><defs></defs></svg><rect width="395.52" height="247.2" fill="none" stroke="none" visibility="hidden"></rect></g></svg></g></svg>